<svg 
 xmlns="http://www.w3.org/2000/svg"
 xmlns:xlink="http://www.w3.org/1999/xlink"
 width="13.203cm" height="22.904cm">
<path fill-rule="evenodd"  fill="rgb(242, 210, 79)"
 d="M186.755,585.756 C252.927,585.756 310.078,531.335 310.078,465.096 C310.078,367.506 210.054,330.341 186.755,158.209 C163.456,330.341 63.434,366.189 63.434,465.096 C63.434,531.335 120.587,585.756 186.755,585.756 Z"/>
<path fill-rule="evenodd"  stroke="rgb(244, 208, 0)" stroke-width="1.5px" stroke-linecap="butt" stroke-linejoin="miter" opacity="0.329" fill="none"
 d="M186.754,646.035 C285.634,646.035 371.033,564.716 371.033,465.735 C371.033,319.909 221.569,264.374 186.754,7.161 C151.940,264.374 2.478,317.941 2.478,465.735 C2.478,564.716 87.881,646.035 186.754,646.035 Z"/>
<path fill-rule="evenodd"  stroke="rgb(244, 208, 0)" stroke-width="1.5px" stroke-linecap="butt" stroke-linejoin="miter" opacity="0.549" fill="none"
 d="M186.755,616.617 C270.027,616.617 341.948,548.132 341.948,464.774 C341.948,341.964 216.075,295.194 186.755,78.578 C157.435,295.194 31.563,340.307 31.563,464.774 C31.563,548.132 103.487,616.617 186.755,616.617 Z"/>
</svg>